<?xml version="1.0" encoding="UTF-8"?>
<svg version="1.1" xmlns="http://www.w3.org/2000/svg" width="158" height="44">
<path d="M0 0 C52.14 0 104.28 0 158 0 C158 14.52 158 29.04 158 44 C105.86 44 53.72 44 0 44 C0 29.48 0 14.96 0 0 Z " fill="#FBFEFE" transform="translate(0,0)"/>
<path d="M0 0 C5.29665982 6.79058951 5.57840258 12.63540889 5 21 C3.22977311 26.86387659 -1.09968905 30.54523532 -6 34 C-12.18657408 36.69959596 -17.80346531 36.27121306 -24.140625 34.3515625 C-30.06318025 31.88759868 -33.31841299 27.74229494 -36 22 C-37.97298249 15.56009648 -36.82023178 10.00323197 -34 4 C-30.76473969 -1.1995255 -26.42517523 -3.79656005 -20.6875 -5.8125 C-12.69561468 -6.37007339 -6.18869352 -5.35972302 0 0 Z " fill="#05C6E3" transform="translate(38,7)"/>
<path d="M0 0 C4.41375 -0.103125 8.8275 -0.20625 13.375 -0.3125 C15.43113525 -0.38078003 15.43113525 -0.38078003 17.52880859 -0.45043945 C25.45345581 -0.53943527 31.46348997 0.30743747 38 5 C40.25390625 7.3515625 40.25390625 7.3515625 41.5625 9.625 C42.24505859 10.75808594 42.24505859 10.75808594 42.94140625 11.9140625 C45.68418525 17.31865284 46.12579425 23.46353763 44.28125 29.2578125 C41.44973665 35.26336097 37.23827557 39.89652874 31.40112305 43.17089844 C25.90063404 45.07020303 19.80375528 44.39416129 14.0625 44.25 C7.1015625 44.12625 7.1015625 44.12625 0 44 C0 29.48 0 14.96 0 0 Z M6 8 C2.38554115 13.12048337 0.72518914 17.67935028 1 24 C2.21163467 30.09789909 4.39066592 35.58010556 9.71875 39.15234375 C16.12657194 42.72495876 22.48384267 43.95199716 29.625 42 C35.23008201 39.86005625 39.4975255 36.01997374 42.171875 30.64453125 C44.00456834 24.79201525 43.80332715 18.32542071 41.8125 12.5625 C38.18941766 7.44021118 34.06561138 2.92887431 27.77734375 1.4921875 C19.54899234 0.29672377 11.95140344 1.87855646 6 8 Z " fill="#4AD6EB" transform="translate(0,0)"/>
<path d="M0 0 C1.546875 0.185625 1.546875 0.185625 3.125 0.375 C6.90182537 5.45354673 7.8423656 11.1570432 8.125 17.375 C7.49534284 20.57725643 6.51060543 23.42500134 5.125 26.375 C3.805 26.045 2.485 25.715 1.125 25.375 C1.145625 24.17875 1.16625 22.9825 1.1875 21.75 C1.1971502 19.02864433 1.01406401 16.70938403 0.5625 14 C0.125 11.375 0.125 11.375 1.125 9.375 C1.164992 7.37539988 1.16846799 5.37452758 1.125 3.375 C0.073125 3.5915625 0.073125 3.5915625 -1 3.8125 C-3.95056141 4.38978375 -6.90770151 4.89195141 -9.875 5.375 C-10.205 4.715 -10.535 4.055 -10.875 3.375 C-9.740625 3.065625 -8.60625 2.75625 -7.4375 2.4375 C-4.18082519 1.46621102 -3.21384855 0.41919764 0 0 Z " fill="#E6F7FB" transform="translate(27.875,8.625)"/>
<path d="M0 0 C0.66 1.32 1.32 2.64 2 4 C5.78309664 10.16861617 9.30908402 13.23134511 16 16 C16 16.33 16 16.66 16 17 C10.72 17 5.44 17 0 17 C0 11.39 0 5.78 0 0 Z " fill="#FAFEFE" transform="translate(0,27)"/>
<path d="M0 0 C5.28 0 10.56 0 16 0 C14.37226727 1.08515515 12.74181886 2.16646587 11.09765625 3.2265625 C5.79546038 6.86991398 3.45824597 10.05923892 1 16 C0.67 16 0.34 16 0 16 C0 10.72 0 5.44 0 0 Z " fill="#FCFEFE" transform="translate(0,0)"/>
<path d="M0 0 C2.0625 0.4375 2.0625 0.4375 4 1 C3.01 1.66 2.02 2.32 1 3 C1.59950296 6.68266103 2.24758891 10.34543185 3 14 C3.33 14 3.66 14 4 14 C3.85915204 15.79206547 3.71216299 17.58364917 3.5625 19.375 C3.48128906 20.37273438 3.40007813 21.37046875 3.31640625 22.3984375 C3 25 3 25 2 27 C1.34 27 0.68 27 0 27 C-1.59921045 23.50172714 -2.31226575 20.85127762 -2 17 C-1.67 16.34 -1.34 15.68 -1 15 C-0.95435202 12.64627594 -0.961687 10.29135488 -1 7.9375 C-1.0375585 5.62530502 -1.04676667 3.31202706 -1 1 C-0.67 0.67 -0.34 0.34 0 0 Z " fill="#44D3E8" transform="translate(14,9)"/>
<path d="M0 0 C1.98 0 3.96 0 6 0 C6 1.32 6 2.64 6 4 C7.32 4 8.64 4 10 4 C10.33 2.68 10.66 1.36 11 0 C11.66 0 12.32 0 13 0 C13.33 1.65 13.66 3.3 14 5 C11.36 5.33 8.72 5.66 6 6 C5.34 5.01 4.68 4.02 4 3 C3.01 3 2.02 3 1 3 C0.67 3.66 0.34 4.32 0 5 C0 3.35 0 1.7 0 0 Z " fill="#86E7F5" transform="translate(67,34)"/>
<path d="M0 0 C1.98 0 3.96 0 6 0 C6 1.32 6 2.64 6 4 C6.66 4 7.32 4 8 4 C8 4.66 8 5.32 8 6 C7.2575 5.835 6.515 5.67 5.75 5.5 C2.80993422 4.88074304 2.80993422 4.88074304 -1 5 C-0.67 3.35 -0.34 1.7 0 0 Z " fill="#9DEBF7" transform="translate(92,34)"/>
<path d="M0 0 C1.4540625 0.0309375 1.4540625 0.0309375 2.9375 0.0625 C3.5975 1.3825 4.2575 2.7025 4.9375 4.0625 C4.2775 4.0625 3.6175 4.0625 2.9375 4.0625 C2.6075 5.0525 2.2775 6.0425 1.9375 7.0625 C1.6075 5.7425 1.2775 4.4225 0.9375 3.0625 C-0.114375 3.2790625 -0.114375 3.2790625 -1.1875 3.5 C-4.13806141 4.07728375 -7.09520151 4.57945141 -10.0625 5.0625 C-10.3925 4.4025 -10.7225 3.7425 -11.0625 3.0625 C-9.928125 2.753125 -8.79375 2.44375 -7.625 2.125 C-0.5367268 0.01095361 -0.5367268 0.01095361 0 0 Z " fill="#C7F0F8" transform="translate(28.0625,8.9375)"/>
<path d="M0 0 C2.64 0 5.28 0 8 0 C7.67 1.65 7.34 3.3 7 5 C5.02 5.33 3.04 5.66 1 6 C0 3 0 3 0 0 Z " fill="#94EAF7" transform="translate(82,34)"/>
<path d="M0 0 C2.0625 0.4375 2.0625 0.4375 4 1 C3.01 1.66 2.02 2.32 1 3 C1.144375 3.845625 1.28875 4.69125 1.4375 5.5625 C2.0058797 9.03593149 2.51202393 12.51445662 3 16 C1.68 15.67 0.36 15.34 -1 15 C-1.02685412 12.68756208 -1.04632841 10.3750373 -1.0625 8.0625 C-1.07410156 6.77472656 -1.08570313 5.48695312 -1.09765625 4.16015625 C-1 1 -1 1 0 0 Z " fill="#D0F2F8" transform="translate(14,9)"/>
<path d="M0 0 C2.875 -0.125 2.875 -0.125 6 0 C6.66 0.66 7.32 1.32 8 2 C7.67 2.99 7.34 3.98 7 5 C6.67 4.34 6.34 3.68 6 3 C5.01 3.99 4.02 4.98 3 6 C2.01 5.67 1.02 5.34 0 5 C0 3.35 0 1.7 0 0 Z " fill="#90E9F6" transform="translate(106,34)"/>
<path d="M0 0 C1.98 0 3.96 0 6 0 C5.67 0.66 5.34 1.32 5 2 C4.34 1.67 3.68 1.34 3 1 C3 1.99 3 2.98 3 4 C3.99 4.33 4.98 4.66 6 5 C3.92446352 5.5534764 2.15634036 6 0 6 C0 4.02 0 2.04 0 0 Z " fill="#89E9F6" transform="translate(135,34)"/>
<path d="M0 0 C3 0 3 0 6 1 C5.67 2.32 5.34 3.64 5 5 C4.21625 4.814375 3.4325 4.62875 2.625 4.4375 C0.02910225 3.74037734 0.02910225 3.74037734 -2 5 C-1.34 3.35 -0.68 1.7 0 0 Z " fill="#7AE5F5" transform="translate(53,34)"/>
<path d="M0 0 C1.32 0 2.64 0 4 0 C4 1.65 4 3.3 4 5 C2.68 5 1.36 5 0 5 C0 3.35 0 1.7 0 0 Z " fill="#95EAF6" transform="translate(101,34)"/>
<path d="M0 0 C0.33 0 0.66 0 1 0 C1.042721 1.66611905 1.04063832 3.33382885 1 5 C0 6 0 6 -2.5625 6.0625 C-3.7690625 6.0315625 -3.7690625 6.0315625 -5 6 C-5 5.01 -5 4.02 -5 3 C-3.35 3 -1.7 3 0 3 C0 2.01 0 1.02 0 0 Z " fill="#5ED9EB" transform="translate(17,23)"/>
</svg>
