<svg xmlns="http://www.w3.org/2000/svg" width="158" height="44" viewBox="0 0 158 44" fill="none"><g clip-path="url(#clip0_19_2)"><path d="M22.379 44.0819C34.8185 44.0819 44.9028 34.1704 44.9028 21.9439C44.9028 9.71739 34.8185 -0.194153 22.379 -0.194153C9.93946 -0.194153 -0.144775 9.71739 -0.144775 21.9439C-0.144775 34.1704 9.93946 44.0819 22.379 44.0819Z" fill="#2EC2DE"></path><path d="M22.379 43.2709C10.4149 43.2709 0.680298 33.7031 0.680298 21.9439C0.680298 10.1847 10.4149 0.616821 22.379 0.616821C34.3431 0.616821 44.0776 10.1847 44.0776 21.9439C44.0776 33.7031 34.3431 43.2709 22.379 43.2709ZM22.379 0.875645C10.5597 0.875645 0.94802 10.327 0.94802 21.9396C0.94802 33.5521 10.5641 43.0035 22.379 43.0035C34.1939 43.0035 43.8099 33.5521 43.8099 21.9396C43.8099 10.327 34.1982 0.875645 22.379 0.875645Z" fill="white"></path><path d="M16.3618 12.3847C16.3618 12.3847 18.1964 12.6262 19.9344 12.169C21.6724 11.7117 22.7257 11.0086 23.9063 10.2882C26.3509 8.79563 29.8006 8.00622 31.7361 10.7066C32.8772 12.2984 33.4214 14.4466 33.9042 16.3101C34.3387 17.9968 33.8472 19.2305 33.9042 20.6023C33.9613 21.9698 34.8522 22.6599 35.651 24.1396C36.4542 25.6192 35.9319 26.2274 35.4886 26.5078C35.0409 26.7882 34.4309 26.909 34.2817 27.2109C34.1324 27.5129 34.1763 27.9356 34.3431 28.3152C34.5099 28.6948 34.4879 29.0011 34.1675 29.3031C33.8472 29.605 33.676 29.6482 33.676 29.6482C33.676 29.6482 33.9262 30.1011 33.9832 30.4117C34.0403 30.7223 34.128 30.938 33.6892 31.1882C33.2503 31.4384 32.8992 31.887 32.9869 32.5125C33.0747 33.138 33.2371 34.0007 32.5612 34.6866C31.8897 35.3682 31.0734 35.1309 30.1473 35.1611C29.2169 35.1913 28.7121 35.9462 28.7121 35.9462C28.7121 35.9462 28.2689 32.7023 27.4613 30.3125C26.6538 27.9227 25.2669 25.2094 23.4016 24.8341C23.4016 24.8341 24.6875 24.627 26.0305 26.6674C27.3735 28.7078 27.9265 30.3945 28.3084 31.6282C28.6902 32.8662 28.7912 35.5752 28.7912 35.5752C28.7912 35.5752 29.8928 32.7799 30.1912 30.6533C30.4897 28.5266 29.726 26.9133 29.3003 25.7443C28.8745 24.5752 28.3215 23.1517 28.3961 21.8188C28.4708 20.4858 29.1642 18.8207 29.6777 17.5827C30.279 16.1419 30.6081 14.3776 30.2307 12.8376C30.0946 12.2768 29.7918 11.729 29.2959 11.4141C28.7868 11.0905 28.1328 11.0517 27.5447 11.1768C26.2675 11.4486 25.1396 12.1388 23.9327 12.596C22.4141 13.1741 20.6761 13.6572 19.0303 13.5148C18.1393 13.4415 16.928 13.1568 16.3618 12.3847Z" fill="white"></path><path d="M19.8115 11.2544C19.8115 11.2544 18.9688 11.6168 17.7355 11.3192C16.4979 11.0172 15.901 10.478 14.8433 11.4399C13.7811 12.4019 14.1059 14.3215 14.4044 15.5423C14.7379 16.9097 15.4226 18.1823 15.6289 19.5799C15.8395 21.0207 15.7166 22.5995 15.2865 23.9929L14.8433 24.4458L13.6363 23.967C13.667 23.9799 14.005 22.4658 14.0181 22.3795C14.1718 21.3701 14.22 20.2701 13.9304 19.278C13.6056 18.1435 13.0306 17.1039 12.7278 15.9694C12.4206 14.8046 12.3196 13.5839 12.4381 12.3846C12.5654 11.0646 13.0438 9.69719 14.4614 9.27445C15.6596 8.91641 16.9719 9.447 17.8014 10.3141C18.2446 10.7756 19.2058 11.3062 19.8115 11.2544Z" fill="white"></path><path d="M11.5868 22.9576C11.5868 22.9576 11.6175 22.6427 12.289 22.6513C12.289 22.6513 11.8457 22.8109 11.9116 23.3501L11.7975 23.4709L11.5868 22.9576Z" fill="#C9CACC"></path><path d="M17.7269 23.1128C17.7269 23.1128 17.7093 22.6125 17.0027 22.6728C17.0027 22.6728 17.4635 22.8583 17.4021 23.4364L17.4899 23.4925L17.7269 23.1128Z" fill="#C9CACC"></path><path d="M11.951 25.5286C11.951 25.5286 11.9774 25.287 12.5699 25.2956C12.5699 25.2956 12.1837 25.4164 12.2407 25.8305L12.1398 25.9254L11.951 25.5286Z" fill="#C9CACC"></path><path d="M17.3582 25.6493C17.3582 25.6493 17.345 25.2654 16.7218 25.3128C16.7218 25.3128 17.1212 25.4983 17.0641 25.9124L17.1519 25.9426L17.3582 25.6493Z" fill="#C9CACC"></path><path d="M12.2056 27.6121C12.2056 27.6121 12.2275 27.3835 12.7673 27.3921C12.7673 27.3921 12.4162 27.5042 12.4689 27.8925L12.3767 27.9788L12.2056 27.6121Z" fill="#C9CACC"></path><path d="M17.1036 27.7242C17.1036 27.7242 17.0905 27.3662 16.5243 27.4093C16.5243 27.4093 16.8886 27.5819 16.8359 27.9701L16.9149 27.996L17.1036 27.7242Z" fill="#C9CACC"></path><path d="M12.4952 29.6352C12.4952 29.6352 12.5172 29.4454 12.9912 29.454C12.9912 29.454 12.6796 29.5489 12.7278 29.8725L12.6488 29.9458L12.4952 29.6352Z" fill="#C9CACC"></path><path d="M16.8139 29.7301C16.8139 29.7301 16.8008 29.4282 16.3048 29.467C16.3048 29.467 16.6252 29.6137 16.5769 29.9372L16.6471 29.9588L16.8139 29.7301Z" fill="#C9CACC"></path><path d="M12.899 31.5764C12.899 31.5764 12.9166 31.3995 13.2984 31.4038C13.2984 31.4038 13.0483 31.4944 13.0834 31.7964L13.0175 31.8654L12.899 31.5764Z" fill="#C9CACC"></path><path d="M16.4102 31.6627C16.4102 31.6627 16.4015 31.3823 15.9977 31.4125C15.9977 31.4125 16.2566 31.5505 16.2215 31.8525L16.2786 31.8741L16.4102 31.6627Z" fill="#C9CACC"></path><path d="M13.1097 33.3407C13.1097 33.3407 13.1229 33.1725 13.4652 33.1811C13.4652 33.1811 13.2414 33.2631 13.2765 33.5521L13.2195 33.6168L13.1097 33.3407Z" fill="#C9CACC"></path><path d="M16.1995 33.4227C16.1995 33.4227 16.1907 33.1595 15.8352 33.1897C15.8352 33.1897 16.0634 33.3191 16.0327 33.6038L16.081 33.6254L16.1995 33.4227Z" fill="#C9CACC"></path><path d="M13.4346 35.4286C13.4346 35.4286 13.4477 35.3121 13.7155 35.3164C13.7155 35.3164 13.5399 35.3725 13.5662 35.5709L13.5223 35.614L13.4346 35.4286Z" fill="#C9CACC"></path><path d="M15.8747 35.4846C15.8747 35.4846 15.8704 35.3035 15.5851 35.325C15.5851 35.325 15.765 35.4113 15.7387 35.6097L15.7782 35.6227L15.8747 35.4846Z" fill="#C9CACC"></path><path d="M11.5868 22.9576C11.5868 22.9576 12.0081 24.0015 14.3166 24.0015C16.6252 24.0015 17.3801 23.6003 17.7268 23.1129C17.7268 23.1129 17.898 24.0921 16.3619 24.6874C14.8258 25.2827 13.2282 24.8686 12.5962 24.5019C11.9686 24.1309 11.4858 23.6521 11.5868 22.9576Z" fill="white"></path><path d="M11.9511 25.5286C11.9511 25.5286 12.3241 26.2317 14.3562 26.2317C16.3882 26.2317 17.0554 26.0246 17.3582 25.6493C17.3582 25.6493 17.5074 26.3999 16.16 26.8615C14.8082 27.3188 13.3994 26.9995 12.8464 26.7192C12.289 26.4344 11.8633 26.0635 11.9511 25.5286Z" fill="white"></path><path d="M12.2056 27.6121C12.2056 27.6121 12.5435 28.2721 14.3825 28.2721C16.2214 28.2721 16.8271 28.0779 17.1036 27.7242C17.1036 27.7242 17.2397 28.4274 16.0152 28.8587C14.7907 29.2858 13.5135 28.9881 13.0132 28.725C12.5128 28.4575 12.1266 28.1125 12.2056 27.6121Z" fill="white"></path><path d="M12.4952 29.6352C12.4952 29.6352 12.7937 30.1874 14.4132 30.1874C16.0371 30.1874 16.5681 30.0234 16.8139 29.7301C16.8139 29.7301 16.9324 30.3211 15.8571 30.6791C14.7774 31.0372 13.6539 30.787 13.2106 30.567C12.7629 30.3426 12.425 30.0536 12.4952 29.6352Z" fill="white"></path><path d="M12.8991 31.5764C12.8991 31.5764 13.1405 32.0941 14.4571 32.0941C15.7738 32.0941 16.2083 31.9431 16.4058 31.6627C16.4058 31.6627 16.5024 32.2148 15.629 32.5513C14.7556 32.8878 13.8383 32.6548 13.4784 32.4435C13.1185 32.2407 12.842 31.969 12.8991 31.5764Z" fill="white"></path><path d="M13.1097 33.3407C13.1097 33.3407 13.3247 33.8281 14.4834 33.8281C15.642 33.8281 16.0283 33.6858 16.2038 33.4227C16.2038 33.4227 16.2872 33.9403 15.5191 34.2595C14.7467 34.5744 13.9391 34.3544 13.6231 34.1603C13.2984 33.9662 13.057 33.7074 13.1097 33.3407Z" fill="white"></path><path d="M13.4345 35.4285C13.4345 35.4285 13.6012 35.7607 14.5185 35.7607C15.4358 35.7607 15.7386 35.6615 15.8747 35.4846C15.8747 35.4846 15.9405 35.8426 15.3305 36.0583C14.7204 36.274 14.084 36.123 13.8339 35.9893C13.5837 35.8556 13.3906 35.6787 13.4345 35.4285Z" fill="white"></path><path d="M51.3503 15.0549C51.2494 15.0549 51.1572 15.0204 51.0826 14.9514C51.0036 14.8823 50.9685 14.7918 50.9685 14.6796V4.88744C50.9685 4.77528 51.008 4.68901 51.0826 4.61568C51.1572 4.54666 51.2494 4.51215 51.3503 4.51215H52.7767C52.9303 4.51215 53.0444 4.55097 53.1234 4.63293C53.1981 4.71489 53.2551 4.77528 53.2858 4.81411L56.0991 9.92156L58.9475 4.81411C58.9694 4.77528 59.0177 4.71489 59.0923 4.63293C59.1669 4.55097 59.2854 4.51215 59.4347 4.51215H60.8611C60.9752 4.51215 61.0673 4.54666 61.1376 4.61568C61.2078 4.6847 61.2429 4.77528 61.2429 4.88744V14.6753C61.2429 14.7874 61.2078 14.878 61.1376 14.947C61.0673 15.0161 60.9752 15.0506 60.8611 15.0506H59.2986C59.1977 15.0506 59.1099 15.0161 59.0397 14.947C58.9694 14.878 58.9343 14.7874 58.9343 14.6753V8.59293L56.9901 12.1776C56.9374 12.2682 56.8716 12.3502 56.7926 12.4192C56.7092 12.4882 56.6038 12.5227 56.4722 12.5227H55.7524C55.6207 12.5227 55.511 12.4882 55.432 12.4192C55.3486 12.3502 55.2828 12.2682 55.2345 12.1776L53.2902 8.59293V14.6796C53.2902 14.7918 53.2551 14.8823 53.1849 14.9514C53.1147 15.0204 53.0269 15.0549 52.9259 15.0549H51.3503V15.0549Z" fill="#08070D"></path><path d="M65.5393 15.2059C64.9995 15.2059 64.5123 15.1023 64.0822 14.8953C63.6521 14.6882 63.3097 14.4121 63.0552 14.0584C62.8006 13.709 62.6733 13.3164 62.6733 12.8851C62.6733 12.1733 62.9674 11.6082 63.5555 11.1984C64.1436 10.7886 64.9161 10.5039 65.8772 10.3529L67.8829 10.0682V9.79644C67.8829 9.4039 67.7908 9.10194 67.6064 8.89056C67.4221 8.67919 67.1017 8.57566 66.6409 8.57566C66.3029 8.57566 66.0308 8.64037 65.829 8.76978C65.6227 8.89919 65.4647 9.07174 65.355 9.28311C65.2716 9.41252 65.1574 9.47723 65.0038 9.47723H63.5467C63.4326 9.47723 63.3492 9.44272 63.2878 9.37801C63.2263 9.31331 63.2 9.23566 63.2132 9.14507C63.2132 8.97252 63.279 8.77409 63.4107 8.54115C63.5423 8.31252 63.7486 8.0839 64.0251 7.85527C64.3016 7.63095 64.6527 7.44115 65.0828 7.29017C65.5129 7.13919 66.0396 7.06586 66.6628 7.06586C67.308 7.06586 67.8566 7.13919 68.3175 7.29017C68.7783 7.44115 69.1469 7.65252 69.4191 7.92429C69.6956 8.19605 69.8975 8.51095 70.0335 8.86468C70.1652 9.22272 70.2354 9.60664 70.2354 10.0164V14.671C70.2354 14.7831 70.2003 14.8737 70.1257 14.9427C70.0554 15.0117 69.9633 15.0462 69.8492 15.0462H68.3482C68.2472 15.0462 68.1594 15.0117 68.0892 14.9427C68.019 14.8737 67.9839 14.7831 67.9839 14.671V14.1145C67.8522 14.3043 67.6723 14.4812 67.4484 14.6494C67.2246 14.8133 66.9569 14.947 66.6453 15.0506C66.3205 15.1541 65.9562 15.2059 65.5393 15.2059ZM66.1493 13.64C66.4873 13.64 66.7901 13.571 67.0534 13.4286C67.3212 13.2862 67.5275 13.0706 67.6811 12.7815C67.8347 12.4882 67.9093 12.1259 67.9093 11.6815V11.427L66.4829 11.6513C65.9299 11.7419 65.5261 11.8757 65.2716 12.0568C65.017 12.238 64.8897 12.458 64.8897 12.7212C64.8897 12.911 64.9468 13.0792 65.0653 13.2172C65.1838 13.3596 65.3374 13.4631 65.5305 13.5321C65.7324 13.6055 65.9343 13.64 66.1493 13.64Z" fill="#08070D"></path><path d="M71.5916 15.0549C71.4994 15.0549 71.4204 15.0204 71.3546 14.9557C71.2888 14.891 71.2537 14.8133 71.2537 14.7227C71.2537 14.6925 71.2624 14.6537 71.2756 14.6106C71.2932 14.5674 71.3151 14.5243 71.3458 14.4812L73.9353 11.0302L71.5609 7.79058C71.5302 7.75176 71.5082 7.70862 71.4907 7.6698C71.4731 7.63098 71.4687 7.58784 71.4687 7.54901C71.4687 7.45843 71.4994 7.38078 71.5697 7.31607C71.6355 7.25137 71.7145 7.21686 71.8067 7.21686H73.3998C73.5227 7.21686 73.6149 7.24705 73.6851 7.30745C73.7509 7.36784 73.7992 7.42392 73.8299 7.47137L75.4099 9.58078L76.9899 7.48862C77.0294 7.43686 77.0821 7.38078 77.1436 7.31607C77.205 7.25137 77.3015 7.21686 77.4332 7.21686H78.9518C79.0439 7.21686 79.1229 7.25137 79.1888 7.31607C79.2546 7.38078 79.2897 7.45843 79.2897 7.54901C79.2897 7.58784 79.2853 7.63098 79.2722 7.6698C79.2634 7.70862 79.237 7.75176 79.1975 7.79058L76.7749 11.0431L79.395 14.4769C79.4258 14.5157 79.4477 14.5588 79.4653 14.5976C79.4828 14.6365 79.4872 14.6796 79.4872 14.7184C79.4872 14.809 79.4521 14.8867 79.3863 14.9514C79.3204 15.0161 79.2414 15.0506 79.1493 15.0506H77.4771C77.363 15.0506 77.2796 15.0247 77.2182 14.9686C77.1567 14.9125 77.104 14.8608 77.0645 14.809L75.3617 12.5788L73.628 14.809C73.5973 14.8478 73.549 14.8996 73.4876 14.96C73.4262 15.0204 73.334 15.0506 73.2111 15.0506H71.5916V15.0549Z" fill="#08070D"></path><path d="M84.3721 15.0549C84.258 15.0549 84.1658 15.0204 84.0956 14.9514C84.0253 14.8823 83.9902 14.7918 83.9902 14.6796V4.88744C83.9902 4.77528 84.0253 4.68901 84.0956 4.61568C84.1658 4.54666 84.258 4.51215 84.3721 4.51215H91.2056C91.3197 4.51215 91.4075 4.54666 91.4821 4.61568C91.5523 4.6847 91.5874 4.77528 91.5874 4.88744V6.16862C91.5874 6.28077 91.5523 6.37136 91.4821 6.44038C91.4118 6.5094 91.3197 6.54391 91.2056 6.54391H86.3778V9.08901H90.8983C91.0125 9.08901 91.1046 9.12352 91.1748 9.19254C91.2451 9.26156 91.2846 9.35215 91.2846 9.4643V10.7455C91.2846 10.8447 91.2495 10.931 91.1748 11C91.1046 11.069 91.0125 11.1035 90.8983 11.1035H86.3778V14.671C86.3778 14.7831 86.3427 14.8737 86.2681 14.9427C86.1978 15.0118 86.1057 15.0463 85.9916 15.0463H84.3721V15.0549Z" fill="#08070D"></path><path d="M94.8528 15.2059C94.3129 15.2059 93.8258 15.1023 93.3957 14.8953C92.9655 14.6882 92.6232 14.4121 92.3687 14.0584C92.1141 13.709 91.9868 13.3164 91.9868 12.8851C91.9868 12.1733 92.2809 11.6082 92.869 11.1984C93.4571 10.7886 94.2295 10.5039 95.1907 10.3529L97.1964 10.0682V9.79644C97.1964 9.4039 97.1043 9.10194 96.9199 8.89056C96.7356 8.67919 96.4152 8.57566 95.9544 8.57566C95.6164 8.57566 95.3443 8.64037 95.1424 8.76978C94.9362 8.89919 94.7781 9.07174 94.6684 9.28311C94.585 9.41252 94.4709 9.47723 94.3173 9.47723H92.8602C92.7461 9.47723 92.6627 9.44272 92.6013 9.37801C92.5398 9.31331 92.5135 9.23566 92.5267 9.14507C92.5267 8.97252 92.5925 8.77409 92.7242 8.54115C92.8558 8.31252 93.0621 8.0839 93.3386 7.85527C93.6151 7.63095 93.9662 7.44115 94.3963 7.29017C94.8264 7.13919 95.3531 7.06586 95.9763 7.06586C96.6215 7.06586 97.1701 7.13919 97.6309 7.29017C98.0918 7.44115 98.4604 7.65252 98.7325 7.92429C99.009 8.19605 99.2109 8.51095 99.347 8.86468C99.4786 9.22272 99.5489 9.60664 99.5489 10.0164V14.671C99.5489 14.7831 99.5138 14.8737 99.4392 14.9427C99.3689 15.0117 99.2768 15.0462 99.1627 15.0462H97.6616C97.5607 15.0462 97.4729 15.0117 97.4027 14.9427C97.3325 14.8737 97.2974 14.7831 97.2974 14.671V14.1145C97.1657 14.3043 96.9858 14.4812 96.7619 14.6494C96.5381 14.8133 96.2704 14.947 95.9588 15.0506C95.634 15.1541 95.2697 15.2059 94.8528 15.2059ZM95.4628 13.64C95.8008 13.64 96.1036 13.571 96.3669 13.4286C96.6347 13.2862 96.8409 13.0706 96.9945 12.7815C97.1482 12.4882 97.2228 12.1259 97.2228 11.6815V11.427L95.7964 11.6513C95.2434 11.7419 94.8396 11.8757 94.585 12.0568C94.3305 12.238 94.2032 12.458 94.2032 12.7212C94.2032 12.911 94.2603 13.0792 94.3788 13.2172C94.4973 13.3596 94.6509 13.4631 94.844 13.5321C95.0459 13.6055 95.2521 13.64 95.4628 13.64Z" fill="#08070D"></path><path d="M104.78 15.2059C104.034 15.2059 103.38 15.0721 102.81 14.8004C102.244 14.5286 101.796 14.1361 101.471 13.6184C101.142 13.1008 100.966 12.4796 100.936 11.7592C100.927 11.5996 100.918 11.3968 100.918 11.151C100.918 10.9051 100.923 10.7023 100.936 10.5427C100.966 9.80938 101.142 9.18389 101.462 8.66625C101.783 8.1486 102.23 7.75605 102.801 7.48429C103.372 7.21252 104.034 7.0788 104.776 7.0788C105.461 7.0788 106.044 7.1737 106.523 7.35919C107.001 7.54468 107.396 7.77762 107.703 8.05801C108.011 8.3384 108.239 8.63174 108.384 8.93801C108.533 9.24429 108.612 9.51174 108.621 9.74468C108.629 9.84389 108.599 9.93448 108.52 10.0078C108.441 10.0811 108.353 10.12 108.252 10.12H106.611C106.51 10.12 106.431 10.0941 106.374 10.038C106.317 9.98193 106.264 9.90429 106.211 9.80507C106.066 9.45566 105.882 9.20115 105.658 9.05017C105.434 8.89919 105.153 8.82585 104.816 8.82585C104.355 8.82585 103.995 8.97252 103.727 9.26154C103.459 9.55488 103.319 10.0035 103.297 10.6161C103.288 11.0086 103.288 11.3623 103.297 11.6859C103.328 12.307 103.473 12.76 103.736 13.0404C103.995 13.3208 104.355 13.4631 104.816 13.4631C105.175 13.4631 105.461 13.3898 105.676 13.2388C105.891 13.0878 106.071 12.8376 106.211 12.4839C106.251 12.3847 106.303 12.307 106.365 12.251C106.426 12.1949 106.51 12.169 106.611 12.169H108.252C108.353 12.169 108.445 12.2078 108.52 12.2811C108.599 12.3545 108.629 12.4451 108.621 12.5443C108.612 12.7168 108.564 12.9153 108.476 13.1482C108.388 13.3811 108.252 13.6141 108.063 13.8557C107.875 14.0972 107.633 14.3215 107.335 14.5243C107.036 14.7313 106.676 14.8953 106.255 15.0204C105.834 15.1455 105.342 15.2059 104.78 15.2059Z" fill="#08070D"></path><path d="M113.532 15.2059C112.356 15.2059 111.425 14.8824 110.736 14.2439C110.047 13.6055 109.683 12.6694 109.639 11.4443C109.639 11.3624 109.639 11.2545 109.639 11.1208C109.639 10.9871 109.639 10.8792 109.639 10.7973C109.678 10.0251 109.858 9.3608 110.174 8.80001C110.49 8.24354 110.934 7.81648 111.509 7.51884C112.079 7.22119 112.751 7.07452 113.514 7.07452C114.375 7.07452 115.09 7.24707 115.669 7.59217C116.249 7.93727 116.683 8.41178 116.973 9.00707C117.262 9.60668 117.412 10.2882 117.412 11.0647V11.4098C117.412 11.509 117.372 11.5953 117.298 11.6643C117.219 11.7333 117.131 11.7679 117.03 11.7679H112.018C112.018 11.7765 112.018 11.7937 112.018 11.8196C112.018 11.8455 112.018 11.8671 112.018 11.8886C112.026 12.2122 112.092 12.5055 112.211 12.7686C112.329 13.0361 112.496 13.2475 112.716 13.4071C112.935 13.5667 113.198 13.6486 113.506 13.6486C113.76 13.6486 113.971 13.6141 114.133 13.5451C114.296 13.4761 114.432 13.3898 114.537 13.2906C114.647 13.1914 114.721 13.1051 114.774 13.0361C114.866 12.9369 114.941 12.8722 114.998 12.8463C115.055 12.8204 115.143 12.8075 115.265 12.8075H116.859C116.96 12.8075 117.043 12.8333 117.113 12.8894C117.179 12.9455 117.205 13.0231 117.197 13.1224C117.188 13.282 117.1 13.4804 116.942 13.7177C116.784 13.9549 116.551 14.1835 116.244 14.4122C115.937 14.6365 115.555 14.8263 115.103 14.9773C114.647 15.1326 114.124 15.2059 113.532 15.2059ZM112.013 10.4004H115.015V10.3702C115.015 10.0079 114.958 9.69295 114.84 9.42982C114.721 9.16237 114.55 8.95531 114.326 8.80433C114.102 8.65335 113.83 8.58001 113.514 8.58001C113.198 8.58001 112.926 8.65335 112.702 8.80433C112.479 8.95531 112.307 9.16237 112.189 9.42982C112.07 9.69727 112.013 10.0079 112.013 10.3702V10.4004V10.4004Z" fill="#08070D"></path><path d="M51.3501 28.9796C51.236 28.9796 51.1438 28.9451 51.0736 28.876C51.0034 28.807 50.9683 28.7164 50.9683 28.6043V18.8121C50.9683 18.7 51.0034 18.6137 51.0736 18.5404C51.1438 18.4713 51.236 18.4368 51.3501 18.4368H55.1948C56.2174 18.4368 57.0688 18.5964 57.7535 18.9113C58.4381 19.2262 58.9604 19.6878 59.3247 20.296C59.689 20.9043 59.8777 21.6549 59.8996 22.5478C59.9084 22.9878 59.9172 23.376 59.9172 23.7082C59.9172 24.0404 59.9128 24.42 59.8996 24.8513C59.8689 25.7874 59.6802 26.5596 59.3335 27.1721C58.9868 27.7847 58.4733 28.2376 57.8018 28.5353C57.1259 28.8329 56.2832 28.9796 55.2738 28.9796H51.3501V28.9796ZM53.4041 27.0341H55.1992C55.7083 27.0341 56.1296 26.9608 56.4544 26.8098C56.7792 26.6588 57.0249 26.4215 57.1829 26.0937C57.3409 25.7658 57.4243 25.3431 57.4375 24.8211C57.4463 24.5278 57.455 24.269 57.4594 24.036C57.4638 23.8074 57.4638 23.5745 57.4594 23.3415C57.455 23.1129 57.4463 22.8541 57.4375 22.5737C57.4155 21.8188 57.218 21.2666 56.8494 20.9086C56.4763 20.5506 55.9014 20.3737 55.1245 20.3737H53.4085V27.0341H53.4041Z" fill="#08070D"></path><path d="M65.0609 29.1306C63.8847 29.1306 62.9542 28.8071 62.2652 28.1686C61.5761 27.5259 61.2119 26.5941 61.168 25.369C61.168 25.287 61.168 25.1792 61.168 25.0455C61.168 24.9118 61.168 24.8039 61.168 24.722C61.2075 23.9498 61.3874 23.2855 61.7034 22.7247C62.0194 22.1682 62.4627 21.7412 63.0376 21.4435C63.6082 21.1459 64.2797 20.9992 65.0434 20.9992C65.9036 20.9992 66.619 21.1718 67.1983 21.5169C67.7776 21.862 68.2121 22.3365 68.5018 22.9318C68.7915 23.5314 68.9407 24.2129 68.9407 24.9894V25.3345C68.9407 25.4337 68.9012 25.52 68.8266 25.589C68.7476 25.658 68.6598 25.6925 68.5589 25.6925H63.5467C63.5467 25.7012 63.5467 25.7184 63.5467 25.7443C63.5467 25.7702 63.5467 25.7918 63.5467 25.8133C63.5555 26.1369 63.6214 26.4302 63.7399 26.6933C63.8584 26.9608 64.0251 27.1721 64.2446 27.3318C64.464 27.4914 64.7274 27.5733 65.0346 27.5733C65.2891 27.5733 65.4998 27.5388 65.6622 27.4698C65.8246 27.4008 65.9606 27.3145 66.066 27.2153C66.1757 27.1161 66.2503 27.0298 66.303 26.9608C66.3951 26.8616 66.4697 26.7969 66.5268 26.771C66.5839 26.7451 66.6716 26.7321 66.7945 26.7321H68.3877C68.4886 26.7321 68.572 26.758 68.6422 26.8141C68.7081 26.8702 68.7344 26.9478 68.7256 27.047C68.7169 27.2067 68.6291 27.4051 68.4711 27.6423C68.3131 27.8796 68.0805 28.1082 67.7732 28.3369C67.466 28.5655 67.0842 28.751 66.6321 28.902C66.1801 29.0529 65.6534 29.1306 65.0609 29.1306ZM63.5467 24.3251H66.5488V24.2949C66.5488 23.9325 66.4917 23.6176 66.3732 23.3545C66.2547 23.087 66.0835 22.88 65.8597 22.729C65.6359 22.578 65.3638 22.5047 65.0478 22.5047C64.7318 22.5047 64.4596 22.578 64.2358 22.729C64.012 22.88 63.8408 23.087 63.7223 23.3545C63.6038 23.622 63.5467 23.9325 63.5467 24.2949V24.3251V24.3251Z" fill="#08070D"></path><path d="M70.6875 28.9796C70.5866 28.9796 70.4988 28.9451 70.4286 28.8761C70.3584 28.8071 70.3232 28.7165 70.3232 28.6043V21.5255C70.3232 21.4133 70.3584 21.327 70.4286 21.2537C70.4988 21.1847 70.5866 21.1502 70.6875 21.1502H72.1885C72.3026 21.1502 72.3904 21.1847 72.465 21.2537C72.5352 21.3227 72.5704 21.4133 72.5704 21.5255V22.1121C72.8381 21.7886 73.1804 21.5255 73.5974 21.3141C74.0143 21.1027 74.5278 20.9992 75.1291 20.9992C75.7304 20.9992 76.2614 21.1329 76.7135 21.4004C77.1655 21.6678 77.5254 22.0518 77.7844 22.5608C78.0433 23.0698 78.175 23.6823 78.175 24.4071V28.6086C78.175 28.7208 78.1355 28.8114 78.0609 28.8804C77.9819 28.9494 77.8941 28.9839 77.7931 28.9839H76.1692C76.0551 28.9839 75.963 28.9494 75.8927 28.8804C75.8225 28.8114 75.7874 28.7208 75.7874 28.6086V24.4976C75.7874 23.967 75.6557 23.5529 75.3968 23.2553C75.1379 22.9576 74.756 22.811 74.2557 22.811C73.7729 22.811 73.3911 22.9576 73.1058 23.2553C72.8205 23.5529 72.6757 23.967 72.6757 24.4976V28.6086C72.6757 28.7208 72.6406 28.8114 72.566 28.8804C72.4957 28.9494 72.408 28.9839 72.307 28.9839H70.6875V28.9796Z" fill="#08070D"></path><path d="M83.604 28.9796C82.972 28.9796 82.4278 28.876 81.9801 28.669C81.528 28.4619 81.1901 28.1427 80.9619 27.7113C80.7337 27.28 80.6152 26.7364 80.6152 26.0851V22.9231H79.4214C79.3073 22.9231 79.2195 22.8886 79.1449 22.8196C79.0747 22.7506 79.0396 22.66 79.0396 22.5478V21.5255C79.0396 21.4133 79.0747 21.327 79.1449 21.2537C79.2151 21.1847 79.3073 21.1502 79.4214 21.1502H80.6152V18.6655C80.6152 18.5533 80.6547 18.4627 80.7293 18.3937C80.8039 18.3247 80.8961 18.2902 80.997 18.2902H82.498C82.6121 18.2902 82.6999 18.3247 82.7745 18.3937C82.8447 18.4627 82.8798 18.5533 82.8798 18.6655V21.1502H84.7978C84.8987 21.1502 84.9865 21.1847 85.0567 21.2537C85.1269 21.3227 85.162 21.4133 85.162 21.5255V22.5478C85.162 22.66 85.1269 22.7506 85.0567 22.8196C84.9865 22.8886 84.8987 22.9231 84.7978 22.9231H82.8798V25.9039C82.8798 26.2878 82.9501 26.5855 83.0861 26.8011C83.2222 27.0168 83.4679 27.1247 83.8147 27.1247H84.9338C85.0348 27.1247 85.1226 27.1592 85.1928 27.2282C85.263 27.2972 85.2981 27.3835 85.2981 27.4827V28.5957C85.2981 28.7078 85.263 28.7984 85.1928 28.8674C85.1226 28.9364 85.0348 28.9709 84.9338 28.9709H83.604V28.9796Z" fill="#08070D"></path><path d="M88.8313 29.1306C88.2914 29.1306 87.8043 29.0271 87.3742 28.82C86.9441 28.613 86.6017 28.3369 86.3472 27.9831C86.0926 27.6337 85.9653 27.2412 85.9653 26.8098C85.9653 26.0981 86.2594 25.533 86.8475 25.1231C87.4356 24.7133 88.2081 24.4286 89.1692 24.2777L91.1749 23.993V23.7212C91.1749 23.3286 91.0828 23.0267 90.8984 22.8153C90.7141 22.6039 90.3937 22.5004 89.9329 22.5004C89.5949 22.5004 89.3228 22.5651 89.1209 22.6945C88.9147 22.8239 88.7567 22.9965 88.6469 23.2079C88.5636 23.3373 88.4494 23.402 88.2958 23.402H86.8387C86.7246 23.402 86.6412 23.3675 86.5798 23.3028C86.5183 23.238 86.492 23.1604 86.5052 23.0698C86.5052 22.8973 86.571 22.6988 86.7027 22.4659C86.8343 22.2373 87.0406 22.0086 87.3171 21.78C87.5936 21.5514 87.9447 21.3659 88.3748 21.2149C88.8049 21.0639 89.3316 20.9906 89.9548 20.9906C90.6 20.9906 91.1486 21.0639 91.6094 21.2149C92.0703 21.3659 92.4389 21.5773 92.7111 21.849C92.9876 22.1208 93.1894 22.4357 93.3255 22.7894C93.4572 23.1475 93.5274 23.5314 93.5274 23.9412V28.5957C93.5274 28.7079 93.4923 28.7984 93.4177 28.8675C93.3474 28.9365 93.2553 28.971 93.1412 28.971H91.6402C91.5392 28.971 91.4514 28.9365 91.3812 28.8675C91.311 28.7984 91.2759 28.7079 91.2759 28.5957V28.0392C91.1442 28.229 90.9643 28.4102 90.7404 28.5741C90.5166 28.738 90.2489 28.8718 89.9373 28.9753C89.6257 29.0788 89.2482 29.1306 88.8313 29.1306ZM89.4413 27.5647C89.7793 27.5647 90.0821 27.4957 90.3454 27.3533C90.6132 27.211 90.8194 26.9953 90.9731 26.7063C91.1267 26.413 91.2013 26.0506 91.2013 25.6063V25.3518L89.7749 25.5761C89.2219 25.6667 88.8181 25.8004 88.5636 25.9816C88.309 26.1628 88.1817 26.3828 88.1817 26.6459C88.1817 26.8357 88.2388 27.0039 88.3573 27.142C88.4758 27.2843 88.6294 27.3879 88.8225 27.4569C89.0244 27.5302 89.2307 27.5647 89.4413 27.5647Z" fill="#08070D"></path><path d="M95.6033 28.9796C95.4892 28.9796 95.397 28.9451 95.3268 28.8761C95.2565 28.8071 95.2214 28.7165 95.2214 28.6043V18.6612C95.2214 18.549 95.2565 18.4584 95.3268 18.3894C95.397 18.3204 95.4892 18.2859 95.6033 18.2859H97.135C97.2359 18.2859 97.3237 18.3204 97.3939 18.3894C97.4642 18.4584 97.4993 18.549 97.4993 18.6612V28.6C97.4993 28.7122 97.4642 28.8028 97.3939 28.8718C97.3237 28.9408 97.2359 28.9753 97.135 28.9753H95.6033V28.9796Z" fill="#08070D"></path><path d="M103.064 28.9796C102.95 28.9796 102.858 28.9451 102.788 28.876C102.718 28.807 102.683 28.7164 102.683 28.6043V18.8121C102.683 18.7 102.718 18.6137 102.788 18.5404C102.858 18.4713 102.95 18.4368 103.064 18.4368H104.798C104.912 18.4368 105 18.4713 105.075 18.5404C105.145 18.6094 105.18 18.7 105.18 18.8121V28.6C105.18 28.7121 105.145 28.8027 105.075 28.8717C105.004 28.9407 104.912 28.9753 104.798 28.9753H103.064V28.9796Z" fill="#08070D"></path><path d="M107.493 28.9796C107.392 28.9796 107.304 28.9451 107.234 28.8761C107.164 28.807 107.128 28.7164 107.128 28.6043V21.5255C107.128 21.4133 107.164 21.327 107.234 21.2537C107.304 21.1847 107.392 21.1502 107.493 21.1502H108.919C109.02 21.1502 109.112 21.1847 109.187 21.2537C109.261 21.3227 109.301 21.4133 109.301 21.5255V22.0388C109.503 21.7584 109.788 21.5168 110.152 21.3141C110.517 21.1157 110.947 21.0078 111.447 20.9992C112.632 20.9776 113.444 21.4219 113.883 22.3235C114.116 21.931 114.458 21.6117 114.901 21.3659C115.344 21.12 115.832 20.9949 116.363 20.9949C116.894 20.9949 117.376 21.1113 117.802 21.3486C118.228 21.5859 118.57 21.9482 118.82 22.4313C119.071 22.9188 119.198 23.5443 119.198 24.3078V28.6C119.198 28.7121 119.163 28.8027 119.088 28.8717C119.018 28.9408 118.93 28.9753 118.829 28.9753H117.311C117.21 28.9753 117.122 28.9408 117.052 28.8717C116.981 28.8027 116.946 28.7121 116.946 28.6V24.4286C116.946 24.0188 116.885 23.6953 116.762 23.458C116.639 23.2208 116.477 23.0525 116.279 22.9533C116.082 22.8541 115.858 22.8023 115.612 22.8023C115.397 22.8023 115.191 22.8541 114.993 22.9533C114.796 23.0525 114.629 23.2208 114.502 23.458C114.374 23.6953 114.309 24.0188 114.309 24.4286V28.6C114.309 28.7121 114.274 28.8027 114.199 28.8717C114.129 28.9408 114.037 28.9753 113.922 28.9753H112.421C112.307 28.9753 112.22 28.9408 112.145 28.8717C112.075 28.8027 112.035 28.7121 112.035 28.6V24.4286C112.035 24.0188 111.974 23.6953 111.851 23.458C111.728 23.2208 111.566 23.0525 111.368 22.9533C111.171 22.8541 110.951 22.8023 110.719 22.8023C110.503 22.8023 110.293 22.8541 110.091 22.9619C109.885 23.0655 109.722 23.2337 109.595 23.4666C109.468 23.6996 109.402 24.0145 109.402 24.4157V28.6043C109.402 28.7164 109.367 28.807 109.297 28.8761C109.226 28.9451 109.139 28.9796 109.038 28.9796H107.493V28.9796Z" fill="#08070D"></path><path d="M121.283 31.8396C121.169 31.8396 121.076 31.8051 121.006 31.7361C120.936 31.667 120.901 31.5765 120.901 31.4643V21.5255C120.901 21.4133 120.936 21.327 121.006 21.2537C121.076 21.1847 121.169 21.1502 121.283 21.1502H122.74C122.854 21.1502 122.942 21.1847 123.016 21.2537C123.087 21.3227 123.122 21.4133 123.122 21.5255V22.0992C123.367 21.7757 123.683 21.5125 124.074 21.3098C124.465 21.1027 124.947 20.9992 125.531 20.9992C126.062 20.9992 126.523 21.0812 126.918 21.2494C127.309 21.4133 127.642 21.6506 127.914 21.9569C128.186 22.2631 128.393 22.6341 128.542 23.0655C128.691 23.4969 128.775 23.9843 128.796 24.5278C128.805 24.7176 128.814 24.8988 128.814 25.0714C128.814 25.2439 128.81 25.4294 128.796 25.6278C128.788 26.1412 128.709 26.6114 128.559 27.0427C128.41 27.4741 128.2 27.8451 127.923 28.1557C127.647 28.4663 127.313 28.7078 126.918 28.8804C126.523 29.0529 126.062 29.1349 125.531 29.1349C125.009 29.1349 124.557 29.04 124.175 28.8545C123.793 28.669 123.477 28.4145 123.231 28.0953V31.4686C123.231 31.5808 123.196 31.6714 123.122 31.7404C123.051 31.8094 122.964 31.8439 122.863 31.8439H121.283V31.8396ZM124.842 27.3231C125.228 27.3231 125.536 27.2412 125.759 27.0729C125.983 26.909 126.146 26.689 126.242 26.4172C126.339 26.1455 126.396 25.8478 126.418 25.5286C126.44 25.218 126.44 24.9074 126.418 24.5969C126.396 24.2733 126.339 23.98 126.242 23.7082C126.146 23.4365 125.983 23.2165 125.759 23.0525C125.536 22.8886 125.228 22.8023 124.842 22.8023C124.465 22.8023 124.157 22.8886 123.92 23.0569C123.683 23.2294 123.517 23.4451 123.416 23.7039C123.315 23.967 123.253 24.2474 123.231 24.5494C123.223 24.7306 123.214 24.9161 123.214 25.1059C123.214 25.2957 123.218 25.4898 123.231 25.6796C123.24 25.96 123.306 26.2231 123.424 26.469C123.543 26.7149 123.714 26.9176 123.947 27.0772C124.175 27.2412 124.473 27.3231 124.842 27.3231Z" fill="#08070D"></path><path d="M130.662 28.9796C130.548 28.9796 130.455 28.9451 130.385 28.8761C130.315 28.8071 130.28 28.7165 130.28 28.6043V18.6612C130.28 18.549 130.315 18.4584 130.385 18.3894C130.455 18.3204 130.548 18.2859 130.662 18.2859H132.193C132.294 18.2859 132.382 18.3204 132.452 18.3894C132.523 18.4584 132.558 18.549 132.558 18.6612V28.6C132.558 28.7122 132.523 28.8028 132.452 28.8718C132.382 28.9408 132.294 28.9753 132.193 28.9753H130.662V28.9796Z" fill="#08070D"></path><path d="M136.683 29.1306C136.143 29.1306 135.656 29.0271 135.226 28.82C134.796 28.613 134.454 28.3369 134.199 27.9831C133.945 27.6337 133.817 27.2412 133.817 26.8098C133.817 26.0981 134.111 25.533 134.7 25.1231C135.288 24.7133 136.06 24.4286 137.021 24.2777L139.027 23.993V23.7212C139.027 23.3286 138.935 23.0267 138.751 22.8153C138.566 22.6039 138.246 22.5004 137.785 22.5004C137.447 22.5004 137.175 22.5651 136.973 22.6945C136.767 22.8239 136.609 22.9965 136.499 23.2079C136.416 23.3373 136.301 23.402 136.148 23.402H134.691C134.577 23.402 134.493 23.3675 134.432 23.3028C134.37 23.238 134.344 23.1604 134.357 23.0698C134.357 22.8973 134.423 22.6988 134.555 22.4659C134.686 22.2373 134.893 22.0086 135.169 21.78C135.446 21.5514 135.797 21.3659 136.227 21.2149C136.657 21.0639 137.184 20.9906 137.807 20.9906C138.452 20.9906 139.001 21.0639 139.462 21.2149C139.922 21.3659 140.291 21.5773 140.563 21.849C140.84 22.1208 141.042 22.4357 141.178 22.7894C141.309 23.1475 141.379 23.5314 141.379 23.9412V28.5957C141.379 28.7079 141.344 28.7984 141.27 28.8675C141.199 28.9365 141.107 28.971 140.993 28.971H139.492C139.391 28.971 139.303 28.9365 139.233 28.8675C139.163 28.7984 139.128 28.7079 139.128 28.5957V28.0392C138.996 28.229 138.816 28.4102 138.592 28.5741C138.369 28.738 138.101 28.8718 137.789 28.9753C137.469 29.0788 137.105 29.1306 136.683 29.1306ZM137.298 27.5647C137.636 27.5647 137.939 27.4957 138.202 27.3533C138.47 27.211 138.676 26.9953 138.829 26.7063C138.983 26.413 139.058 26.0506 139.058 25.6063V25.3518L137.631 25.5761C137.078 25.6667 136.675 25.8004 136.42 25.9816C136.165 26.1628 136.038 26.3828 136.038 26.6459C136.038 26.8357 136.095 27.0039 136.214 27.142C136.332 27.2843 136.486 27.3879 136.679 27.4569C136.881 27.5302 137.083 27.5647 137.298 27.5647Z" fill="#08070D"></path><path d="M143.442 28.9796C143.341 28.9796 143.253 28.9451 143.183 28.8761C143.113 28.8071 143.078 28.7165 143.078 28.6043V21.5255C143.078 21.4133 143.113 21.327 143.183 21.2537C143.253 21.1847 143.341 21.1502 143.442 21.1502H144.943C145.057 21.1502 145.145 21.1847 145.22 21.2537C145.29 21.3227 145.325 21.4133 145.325 21.5255V22.1121C145.593 21.7886 145.935 21.5255 146.352 21.3141C146.769 21.1027 147.282 20.9992 147.884 20.9992C148.485 20.9992 149.016 21.1329 149.468 21.4004C149.92 21.6678 150.28 22.0518 150.539 22.5608C150.798 23.0698 150.93 23.6823 150.93 24.4071V28.6086C150.93 28.7208 150.89 28.8114 150.815 28.8804C150.736 28.9494 150.649 28.9839 150.548 28.9839H148.924C148.81 28.9839 148.718 28.9494 148.647 28.8804C148.577 28.8114 148.542 28.7208 148.542 28.6086V24.4976C148.542 23.967 148.41 23.5529 148.151 23.2553C147.892 22.9576 147.511 22.811 147.01 22.811C146.528 22.811 146.146 22.9576 145.86 23.2553C145.575 23.5529 145.43 23.967 145.43 24.4976V28.6086C145.43 28.7208 145.395 28.8114 145.321 28.8804C145.25 28.9494 145.163 28.9839 145.062 28.9839H143.442V28.9796Z" fill="#08070D"></path><path d="M156.359 28.9796C155.727 28.9796 155.182 28.876 154.735 28.669C154.283 28.4619 153.945 28.1427 153.717 27.7113C153.488 27.28 153.37 26.7364 153.37 26.0851V22.9231H152.176C152.062 22.9231 151.974 22.8886 151.9 22.8196C151.829 22.7506 151.794 22.66 151.794 22.5478V21.5255C151.794 21.4133 151.829 21.327 151.9 21.2537C151.97 21.1847 152.062 21.1502 152.176 21.1502H153.37V18.6655C153.37 18.5533 153.409 18.4627 153.484 18.3937C153.559 18.3247 153.651 18.2902 153.752 18.2902H155.253C155.367 18.2902 155.455 18.3247 155.529 18.3937C155.599 18.4627 155.634 18.5533 155.634 18.6655V21.1502H157.552C157.653 21.1502 157.741 21.1847 157.811 21.2537C157.882 21.3227 157.917 21.4133 157.917 21.5255V22.5478C157.917 22.66 157.882 22.7506 157.811 22.8196C157.741 22.8886 157.653 22.9231 157.552 22.9231H155.634V25.9039C155.634 26.2878 155.705 26.5855 155.841 26.8011C155.977 27.0168 156.223 27.1247 156.569 27.1247H157.688C157.789 27.1247 157.877 27.1592 157.947 27.2282C158.018 27.2972 158.053 27.3835 158.053 27.4827V28.5957C158.053 28.7078 158.018 28.7984 157.947 28.8674C157.877 28.9364 157.789 28.9709 157.688 28.9709H156.359V28.9796Z" fill="#08070D"></path><path d="M51.1219 39.2937C51.0824 39.2937 51.0429 39.2808 51.0121 39.2463C50.9814 39.2118 50.9639 39.1816 50.9639 39.1384C50.9639 39.1125 50.9683 39.0867 50.9726 39.0565L52.8862 34.1518C52.9081 34.1 52.9345 34.0612 52.9696 34.031C53.0047 34.0008 53.0618 33.9835 53.132 33.9835H53.6543C53.7201 33.9835 53.7728 33.9965 53.8123 34.031C53.8518 34.0612 53.8781 34.1 53.9 34.1518L55.8048 39.0565C55.8136 39.0867 55.818 39.1125 55.818 39.1384C55.818 39.1772 55.8048 39.2161 55.7697 39.2463C55.7346 39.2765 55.7039 39.2937 55.66 39.2937H55.265C55.2035 39.2937 55.1596 39.2808 55.1289 39.2463C55.1026 39.2161 55.0806 39.1902 55.0719 39.1643L54.6461 38.0859H52.1138L51.688 39.1643C51.6836 39.1902 51.6661 39.2161 51.6354 39.2463C51.6046 39.2765 51.5564 39.2937 51.4949 39.2937H51.1219ZM52.3551 37.4388H54.4399L53.3997 34.7471L52.3551 37.4388Z" fill="#2EC2DE"></path><path d="M56.9065 39.2937C56.8495 39.2937 56.8056 39.2765 56.7748 39.2463C56.7441 39.2118 56.7266 39.173 56.7266 39.1212V34.169C56.7266 34.113 56.7397 34.0698 56.7748 34.0353C56.8056 34.0008 56.8495 33.9879 56.9065 33.9879H57.262C57.3235 33.9879 57.3717 34.0008 57.4024 34.031C57.4332 34.0569 57.4507 34.0784 57.4551 34.0957L60.0182 37.9608V34.169C60.0182 34.113 60.0358 34.0698 60.0665 34.0353C60.0972 34.0008 60.1411 33.9879 60.1982 33.9879H60.5668C60.6239 33.9879 60.6678 34.0051 60.7029 34.0353C60.738 34.0698 60.7512 34.113 60.7512 34.169V39.1126C60.7512 39.1643 60.7336 39.2075 60.7029 39.242C60.6678 39.2765 60.6283 39.2937 60.5756 39.2937H60.2069C60.1499 39.2937 60.106 39.2808 60.0797 39.2463C60.0533 39.2118 60.0314 39.1945 60.0226 39.1859L57.4683 35.3553V39.1169C57.4683 39.1686 57.4507 39.2075 57.42 39.242C57.3849 39.2765 57.341 39.2894 57.284 39.2894H56.9065V39.2937Z" fill="#2EC2DE"></path><path d="M61.7957 39.2937C61.7562 39.2937 61.7167 39.2808 61.686 39.2463C61.6553 39.2118 61.6377 39.1816 61.6377 39.1384C61.6377 39.1125 61.6421 39.0867 61.6465 39.0565L63.56 34.1518C63.582 34.1 63.6083 34.0612 63.6434 34.031C63.6785 34.0008 63.7356 33.9835 63.8058 33.9835H64.3281C64.3939 33.9835 64.4466 33.9965 64.4861 34.031C64.5256 34.0612 64.5519 34.1 64.5739 34.1518L66.4786 39.0565C66.4874 39.0867 66.4918 39.1125 66.4918 39.1384C66.4918 39.1772 66.4786 39.2161 66.4479 39.2463C66.4172 39.2765 66.3821 39.2937 66.3382 39.2937H65.9432C65.8817 39.2937 65.8379 39.2808 65.8071 39.2463C65.7764 39.2118 65.7589 39.1902 65.7501 39.1643L65.3244 38.0859H62.792L62.3663 39.1643C62.3619 39.1902 62.3443 39.2161 62.3136 39.2463C62.2829 39.2765 62.2346 39.2937 62.1731 39.2937H61.7957ZM63.0334 37.4388H65.1181L64.0779 34.7471L63.0334 37.4388Z" fill="#2EC2DE"></path><path d="M67.5845 39.2937C67.5274 39.2937 67.4835 39.2765 67.4528 39.2463C67.4221 39.2118 67.4089 39.173 67.4089 39.1212V34.169C67.4089 34.113 67.4221 34.0698 67.4528 34.0353C67.4835 34.0008 67.5274 33.9879 67.5845 33.9879H69.5419C69.9238 33.9879 70.2529 34.0482 70.5338 34.169C70.8147 34.2898 71.0298 34.471 71.1834 34.7126C71.337 34.9541 71.416 35.2518 71.416 35.6098C71.416 35.9679 71.337 36.2655 71.1834 36.5028C71.0298 36.74 70.8103 36.9212 70.5338 37.042C70.2529 37.1628 69.9238 37.2231 69.5419 37.2231H68.177V39.1169C68.177 39.1686 68.1594 39.2075 68.1287 39.242C68.0936 39.2765 68.0497 39.2894 67.9927 39.2894H67.5845V39.2937ZM68.1682 36.589H69.5024C69.8843 36.589 70.1695 36.5071 70.3583 36.3388C70.547 36.1706 70.6436 35.929 70.6436 35.6098C70.6436 35.2949 70.5514 35.0533 70.367 34.8808C70.1827 34.7082 69.893 34.622 69.5024 34.622H68.1682V36.589Z" fill="#2EC2DE"></path><path d="M72.6143 39.2937C72.5572 39.2937 72.5133 39.2765 72.4826 39.2463C72.4519 39.2118 72.4387 39.173 72.4387 39.1212V34.1604C72.4387 34.1086 72.4519 34.0698 72.4826 34.0353C72.5133 34.0008 72.5572 33.9879 72.6143 33.9879H73.0224C73.0751 33.9879 73.1146 34.0051 73.1453 34.0353C73.1761 34.0655 73.1936 34.1086 73.1936 34.1604V38.6337H75.7611C75.8182 38.6337 75.8621 38.651 75.8928 38.6812C75.9235 38.7157 75.9411 38.7588 75.9411 38.8149V39.1169C75.9411 39.1686 75.9279 39.2075 75.8928 39.242C75.8621 39.2765 75.8182 39.2894 75.7611 39.2894H72.6143V39.2937Z" fill="#2EC2DE"></path><path d="M76.4939 39.2937C76.4544 39.2937 76.4149 39.2808 76.3842 39.2463C76.3535 39.2118 76.3403 39.1816 76.3403 39.1384C76.3403 39.1125 76.3403 39.0867 76.3491 39.0565L78.2627 34.1518C78.2846 34.1 78.3109 34.0612 78.3461 34.031C78.3812 34.0008 78.4338 33.9835 78.5084 33.9835H79.0307C79.0966 33.9835 79.1492 33.9965 79.1887 34.031C79.2282 34.0612 79.2589 34.1 79.2765 34.1518L81.1813 39.0565C81.1901 39.0867 81.1944 39.1125 81.1944 39.1384C81.1944 39.1772 81.1813 39.2161 81.1506 39.2463C81.1198 39.2765 81.0847 39.2937 81.0408 39.2937H80.6458C80.5844 39.2937 80.5405 39.2808 80.5098 39.2463C80.4791 39.2161 80.4615 39.1902 80.4527 39.1643L80.027 38.0859H77.4946L77.0689 39.1643C77.0645 39.1902 77.0469 39.2161 77.0162 39.2463C76.9855 39.2765 76.9372 39.2937 76.8758 39.2937H76.4939ZM77.7272 37.4388H79.8119L78.7718 34.7471L77.7272 37.4388Z" fill="#2EC2DE"></path><path d="M83.762 39.3713C83.3143 39.3713 82.9369 39.3023 82.634 39.1686C82.3312 39.0349 82.0986 38.8623 81.9362 38.6466C81.7738 38.431 81.6904 38.2023 81.6772 37.9608C81.6772 37.9219 81.6948 37.8831 81.7255 37.8529C81.7606 37.8184 81.8001 37.8055 81.844 37.8055H82.239C82.3005 37.8055 82.3487 37.8184 82.3795 37.8529C82.4102 37.8831 82.4321 37.9176 82.4409 37.9608C82.4672 38.0815 82.5287 38.2023 82.6296 38.3188C82.7306 38.4396 82.871 38.5345 83.0554 38.6164C83.2397 38.6984 83.4723 38.7329 83.762 38.7329C84.2052 38.7329 84.53 38.6553 84.7363 38.5C84.9426 38.3447 85.0479 38.1419 85.0479 37.8831C85.0479 37.7063 84.9909 37.5639 84.8811 37.4561C84.7714 37.3482 84.6002 37.249 84.3764 37.1627C84.1482 37.0765 83.8585 36.9815 83.4986 36.8823C83.1212 36.7745 82.814 36.6623 82.5638 36.5329C82.318 36.4078 82.1337 36.2482 82.0108 36.0627C81.8923 35.8772 81.8309 35.64 81.8309 35.351C81.8309 35.0792 81.9055 34.8333 82.0547 34.6176C82.2039 34.4019 82.419 34.2337 82.6999 34.1043C82.9807 33.9792 83.3231 33.9145 83.7225 33.9145C84.0429 33.9145 84.3194 33.9576 84.5607 34.0396C84.8021 34.1215 84.9996 34.2337 85.1576 34.3717C85.3156 34.5098 85.4385 34.6608 85.5219 34.8204C85.6053 34.98 85.6492 35.1353 85.6536 35.2863C85.6536 35.3208 85.6404 35.3553 85.6141 35.3898C85.5877 35.4243 85.5482 35.4372 85.4912 35.4372H85.083C85.0479 35.4372 85.0084 35.4286 84.9733 35.407C84.9338 35.3855 84.9031 35.351 84.8855 35.2949C84.8548 35.0878 84.7363 34.9153 84.53 34.7729C84.3237 34.6306 84.056 34.5615 83.7269 34.5615C83.3933 34.5615 83.1212 34.6263 82.9149 34.7514C82.7086 34.8764 82.6033 35.0749 82.6033 35.3423C82.6033 35.5149 82.6516 35.6572 82.7481 35.7694C82.8447 35.8815 82.9983 35.9808 83.2134 36.067C83.424 36.1533 83.7005 36.2439 84.0385 36.3388C84.451 36.451 84.789 36.5674 85.0479 36.6925C85.3112 36.8176 85.5044 36.9686 85.6316 37.1541C85.7589 37.3396 85.8204 37.5768 85.8204 37.8615C85.8204 38.1808 85.737 38.4525 85.5658 38.6768C85.3946 38.9012 85.1576 39.0737 84.8504 39.1945C84.5388 39.311 84.1745 39.3713 83.762 39.3713Z" fill="#2EC2DE"></path><path d="M88.1949 39.2937C88.1422 39.2937 88.1027 39.2765 88.0676 39.2463C88.0325 39.2118 88.0194 39.173 88.0194 39.1212V34.6608H86.5403C86.4876 34.6608 86.4481 34.6435 86.413 34.6133C86.3779 34.5788 86.3647 34.54 86.3647 34.4882V34.169C86.3647 34.113 86.3823 34.0698 86.413 34.0353C86.4481 34.0008 86.4876 33.9879 86.5403 33.9879H90.2577C90.3147 33.9879 90.3586 34.0051 90.3937 34.0353C90.4289 34.0655 90.442 34.113 90.442 34.169V34.4882C90.442 34.54 90.4245 34.5788 90.3937 34.6133C90.3586 34.6479 90.3147 34.6608 90.2577 34.6608H88.783V39.1212C88.783 39.173 88.7655 39.2118 88.7347 39.2463C88.6996 39.2808 88.6557 39.2937 88.5987 39.2937H88.1949Z" fill="#2EC2DE"></path><path d="M93.2157 39.3714C92.7769 39.3714 92.4038 39.298 92.0878 39.1471C91.7762 38.9961 91.5348 38.7675 91.3636 38.4569C91.1925 38.1463 91.1003 37.7537 91.0784 37.2835C91.074 37.0592 91.0696 36.8478 91.0696 36.6451C91.0696 36.438 91.0696 36.2267 91.0784 36.0024C91.1003 35.5365 91.1969 35.1482 91.3768 34.8377C91.5524 34.5271 91.8025 34.2941 92.1185 34.1388C92.4345 33.9835 92.7988 33.9059 93.2201 33.9059C93.6415 33.9059 94.0101 33.9835 94.3261 34.1388C94.6421 34.2941 94.8923 34.5271 95.0722 34.8377C95.2522 35.1482 95.3487 35.5365 95.3663 36.0024C95.3751 36.2267 95.3795 36.438 95.3795 36.6451C95.3795 36.8478 95.3751 37.0635 95.3663 37.2835C95.3531 37.7537 95.2566 38.1463 95.0854 38.4569C94.9142 38.7675 94.6685 38.9961 94.3569 39.1471C94.0365 39.298 93.659 39.3714 93.2157 39.3714ZM93.2157 38.7286C93.6107 38.7286 93.9355 38.6122 94.1857 38.3792C94.4359 38.1463 94.5719 37.771 94.5895 37.249C94.5982 37.0204 94.6026 36.8176 94.6026 36.6365C94.6026 36.4553 94.5982 36.2569 94.5895 36.0326C94.5807 35.6831 94.5149 35.3984 94.392 35.1827C94.2735 34.9671 94.1111 34.8075 93.9092 34.7039C93.7073 34.6047 93.4747 34.5529 93.2157 34.5529C92.9656 34.5529 92.7374 34.6047 92.5355 34.7039C92.3336 34.8031 92.1756 34.9627 92.0527 35.1827C91.9342 35.3984 91.864 35.6831 91.8508 36.0326C91.8464 36.2569 91.842 36.4553 91.842 36.6365C91.842 36.8176 91.842 37.0204 91.8508 37.249C91.8727 37.771 92.0088 38.1463 92.259 38.3792C92.5135 38.6122 92.8339 38.7286 93.2157 38.7286Z" fill="#2EC2DE"></path><path d="M96.7576 39.2937C96.7005 39.2937 96.6566 39.2765 96.6259 39.2463C96.5952 39.2118 96.582 39.173 96.582 39.1212V34.1604C96.582 34.1086 96.5952 34.0698 96.6259 34.0353C96.6566 34.0008 96.7005 33.9879 96.7576 33.9879H97.1658C97.2184 33.9879 97.2579 34.0051 97.2886 34.0353C97.3194 34.0655 97.3369 34.1086 97.3369 34.1604V38.6337H99.9044C99.9615 38.6337 100.005 38.651 100.036 38.6812C100.067 38.7157 100.084 38.7588 100.084 38.8149V39.1169C100.084 39.1686 100.071 39.2075 100.036 39.242C100.005 39.2765 99.9615 39.2894 99.9044 39.2894H96.7576V39.2937Z" fill="#2EC2DE"></path><path d="M102.867 39.3714C102.428 39.3714 102.055 39.298 101.739 39.1471C101.427 38.9961 101.186 38.7675 101.015 38.4569C100.844 38.1463 100.751 37.7537 100.729 37.2835C100.725 37.0592 100.721 36.8478 100.721 36.6451C100.721 36.438 100.721 36.2267 100.729 36.0024C100.751 35.5365 100.848 35.1482 101.028 34.8377C101.203 34.5271 101.454 34.2941 101.77 34.1388C102.086 33.9835 102.45 33.9059 102.871 33.9059C103.293 33.9059 103.661 33.9835 103.977 34.1388C104.293 34.2941 104.543 34.5271 104.723 34.8377C104.903 35.1482 105 35.5365 105.017 36.0024C105.026 36.2267 105.031 36.438 105.031 36.6451C105.031 36.8478 105.026 37.0635 105.017 37.2835C105.004 37.7537 104.908 38.1463 104.737 38.4569C104.565 38.7675 104.32 38.9961 104.008 39.1471C103.688 39.298 103.31 39.3714 102.867 39.3714ZM102.867 38.7286C103.262 38.7286 103.587 38.6122 103.837 38.3792C104.087 38.1463 104.223 37.771 104.241 37.249C104.249 37.0204 104.254 36.8176 104.254 36.6365C104.254 36.4553 104.249 36.2569 104.241 36.0326C104.232 35.6831 104.166 35.3984 104.043 35.1827C103.925 34.9671 103.762 34.8075 103.56 34.7039C103.358 34.6047 103.126 34.5529 102.867 34.5529C102.617 34.5529 102.388 34.6047 102.187 34.7039C101.985 34.8031 101.827 34.9627 101.704 35.1827C101.585 35.3984 101.515 35.6831 101.502 36.0326C101.498 36.2569 101.493 36.4553 101.493 36.6365C101.493 36.8176 101.493 37.0204 101.502 37.249C101.524 37.771 101.66 38.1463 101.91 38.3792C102.165 38.6122 102.481 38.7286 102.867 38.7286Z" fill="#2EC2DE"></path><path d="M108.191 39.3713C107.739 39.3713 107.352 39.2894 107.036 39.1212C106.72 38.9529 106.479 38.72 106.312 38.418C106.145 38.1161 106.053 37.758 106.031 37.3482C106.027 37.1239 106.022 36.891 106.022 36.6408C106.022 36.3906 106.022 36.1533 106.031 35.9247C106.053 35.5149 106.145 35.1612 106.312 34.8635C106.479 34.5659 106.72 34.3329 107.041 34.1647C107.361 33.9964 107.743 33.9145 108.191 33.9145C108.555 33.9145 108.871 33.9663 109.139 34.0655C109.406 34.1647 109.626 34.2941 109.797 34.4494C109.968 34.6047 110.1 34.7643 110.183 34.9325C110.267 35.1008 110.315 35.2474 110.319 35.3725C110.324 35.42 110.31 35.4545 110.28 35.4804C110.249 35.5106 110.209 35.5235 110.157 35.5235H109.7C109.648 35.5235 109.613 35.5149 109.586 35.4933C109.564 35.4717 109.542 35.4372 109.52 35.3855C109.472 35.2561 109.398 35.1266 109.292 34.9972C109.187 34.8721 109.046 34.7643 108.866 34.6823C108.691 34.6004 108.463 34.5572 108.182 34.5572C107.774 34.5572 107.449 34.6651 107.199 34.8851C106.949 35.1008 106.812 35.4631 106.795 35.9635C106.782 36.4121 106.782 36.8651 106.795 37.3137C106.817 37.8184 106.953 38.1808 107.203 38.4008C107.453 38.6208 107.782 38.7286 108.191 38.7286C108.463 38.7286 108.704 38.6812 108.919 38.5819C109.134 38.4827 109.301 38.3317 109.424 38.1247C109.547 37.9176 109.608 37.6545 109.608 37.3353V37.0161H108.45C108.397 37.0161 108.357 36.9988 108.322 36.9686C108.287 36.9341 108.274 36.891 108.274 36.8349V36.5933C108.274 36.5372 108.292 36.4941 108.322 36.4596C108.357 36.4251 108.397 36.4121 108.45 36.4121H110.192C110.249 36.4121 110.293 36.4294 110.324 36.4596C110.354 36.4941 110.372 36.5372 110.372 36.5933V37.3223C110.372 37.7364 110.284 38.0988 110.113 38.4051C109.942 38.7157 109.692 38.9529 109.362 39.1212C109.042 39.2851 108.647 39.3713 108.191 39.3713Z" fill="#2EC2DE"></path><path d="M112.992 39.2937C112.939 39.2937 112.9 39.2765 112.865 39.2463C112.83 39.2118 112.816 39.1729 112.816 39.1212V37.331L110.956 34.238C110.951 34.2251 110.947 34.2078 110.938 34.1906C110.934 34.1776 110.929 34.1561 110.929 34.1388C110.929 34.1 110.947 34.0612 110.977 34.031C111.008 34.0008 111.043 33.9835 111.087 33.9835H111.487C111.535 33.9835 111.574 33.9965 111.609 34.018C111.645 34.0396 111.671 34.0741 111.688 34.1129L113.194 36.5674L114.699 34.1129C114.726 34.0741 114.756 34.0396 114.787 34.018C114.822 33.9965 114.862 33.9835 114.906 33.9835H115.301C115.349 33.9835 115.384 33.9965 115.415 34.031C115.445 34.0612 115.463 34.0957 115.463 34.1388C115.463 34.1604 115.459 34.1776 115.454 34.1906C115.45 34.2078 115.441 34.2208 115.432 34.238L113.58 37.331V39.1212C113.58 39.1729 113.563 39.2118 113.532 39.2463C113.497 39.2808 113.453 39.2937 113.396 39.2937H112.992Z" fill="#2EC2DE"></path><path d="M120.12 39.3714C119.646 39.3714 119.255 39.2851 118.943 39.1126C118.632 38.94 118.395 38.6984 118.237 38.3922C118.079 38.0859 117.991 37.7235 117.973 37.3137C117.969 37.1067 117.965 36.8824 117.965 36.6451C117.965 36.4078 117.965 36.1792 117.973 35.9635C117.987 35.5537 118.074 35.1957 118.237 34.8851C118.395 34.5788 118.632 34.3373 118.943 34.1647C119.255 33.9922 119.646 33.9059 120.12 33.9059C120.475 33.9059 120.787 33.9533 121.054 34.0482C121.322 34.1431 121.546 34.2726 121.721 34.4365C121.897 34.6004 122.033 34.7773 122.125 34.98C122.217 35.1784 122.27 35.3855 122.279 35.5969C122.283 35.6443 122.27 35.6788 122.235 35.709C122.2 35.7392 122.16 35.7565 122.116 35.7565H121.691C121.647 35.7565 121.603 35.7435 121.572 35.7177C121.537 35.6918 121.515 35.6486 121.498 35.5796C121.41 35.1871 121.247 34.9153 121.006 34.7686C120.765 34.622 120.466 34.5486 120.106 34.5486C119.694 34.5486 119.369 34.6651 119.128 34.8937C118.886 35.1224 118.755 35.4933 118.733 35.998C118.719 36.4122 118.719 36.8392 118.733 37.2706C118.755 37.7753 118.882 38.142 119.128 38.3749C119.369 38.6035 119.694 38.72 120.106 38.72C120.466 38.72 120.765 38.6467 121.006 38.5C121.243 38.3533 121.41 38.0816 121.498 37.689C121.511 37.6243 121.537 37.5769 121.572 37.551C121.607 37.5251 121.647 37.5122 121.691 37.5122H122.116C122.165 37.5122 122.204 37.5251 122.235 37.5596C122.266 37.5941 122.283 37.6286 122.279 37.6718C122.27 37.8831 122.217 38.0902 122.125 38.2886C122.033 38.4871 121.897 38.6682 121.721 38.8322C121.546 38.9961 121.322 39.1212 121.054 39.2204C120.782 39.3239 120.475 39.3714 120.12 39.3714Z" fill="#2EC2DE"></path><path d="M123.565 39.2937C123.508 39.2937 123.464 39.2765 123.433 39.2463C123.403 39.2118 123.389 39.173 123.389 39.1212V34.1604C123.389 34.1086 123.403 34.0698 123.433 34.0353C123.464 34.0008 123.508 33.9879 123.565 33.9879H123.973C124.026 33.9879 124.065 34.0051 124.096 34.0353C124.127 34.0655 124.144 34.1086 124.144 34.1604V38.6337H126.712C126.769 38.6337 126.813 38.651 126.843 38.6812C126.874 38.7157 126.892 38.7588 126.892 38.8149V39.1169C126.892 39.1686 126.879 39.2075 126.843 39.242C126.813 39.2765 126.769 39.2894 126.712 39.2894H123.565V39.2937Z" fill="#2EC2DE"></path><path d="M127.989 39.2937C127.932 39.2937 127.888 39.2765 127.857 39.2463C127.826 39.2118 127.813 39.173 127.813 39.1212V34.1604C127.813 34.1086 127.826 34.0698 127.857 34.0353C127.888 34.0008 127.932 33.9879 127.989 33.9879H128.397C128.45 33.9879 128.489 34.0051 128.524 34.0353C128.559 34.0698 128.573 34.1086 128.573 34.1604V39.1212C128.573 39.173 128.555 39.2118 128.524 39.2463C128.489 39.2808 128.45 39.2937 128.397 39.2937H127.989Z" fill="#2EC2DE"></path><path d="M130.17 39.2937C130.113 39.2937 130.069 39.2765 130.039 39.2463C130.008 39.2118 129.995 39.173 129.995 39.1212V34.169C129.995 34.113 130.008 34.0698 130.039 34.0353C130.069 34.0008 130.113 33.9879 130.17 33.9879H130.526C130.587 33.9879 130.635 34.0008 130.666 34.031C130.697 34.0569 130.714 34.0784 130.719 34.0957L133.282 37.9608V34.169C133.282 34.113 133.295 34.0698 133.326 34.0353C133.357 34.0008 133.4 33.9879 133.457 33.9879H133.826C133.883 33.9879 133.927 34.0051 133.962 34.0353C133.997 34.0655 134.01 34.113 134.01 34.169V39.1126C134.01 39.1643 133.993 39.2075 133.962 39.242C133.927 39.2765 133.888 39.2937 133.835 39.2937H133.466C133.409 39.2937 133.365 39.2808 133.339 39.2463C133.308 39.2161 133.291 39.1945 133.282 39.1859L130.728 35.3553V39.1169C130.728 39.1686 130.71 39.2075 130.679 39.242C130.644 39.2765 130.6 39.2894 130.543 39.2894H130.17V39.2937Z" fill="#2EC2DE"></path><path d="M135.599 39.2937C135.542 39.2937 135.498 39.2765 135.467 39.2463C135.437 39.2118 135.424 39.173 135.424 39.1212V34.1604C135.424 34.1086 135.437 34.0698 135.467 34.0353C135.498 34.0008 135.542 33.9879 135.599 33.9879H136.007C136.06 33.9879 136.099 34.0051 136.135 34.0353C136.17 34.0655 136.183 34.1086 136.183 34.1604V39.1212C136.183 39.173 136.165 39.2118 136.135 39.2463C136.099 39.2808 136.06 39.2937 136.007 39.2937H135.599Z" fill="#2EC2DE"></path><path d="M139.211 39.3714C138.737 39.3714 138.347 39.2851 138.035 39.1126C137.724 38.94 137.487 38.6984 137.329 38.3922C137.171 38.0859 137.083 37.7235 137.065 37.3137C137.061 37.1067 137.056 36.8824 137.056 36.6451C137.056 36.4078 137.056 36.1792 137.065 35.9635C137.078 35.5537 137.166 35.1957 137.329 34.8851C137.487 34.5788 137.724 34.3373 138.035 34.1647C138.347 33.9922 138.737 33.9059 139.211 33.9059C139.567 33.9059 139.878 33.9533 140.146 34.0482C140.414 34.1431 140.638 34.2726 140.813 34.4365C140.989 34.6004 141.125 34.7773 141.217 34.98C141.309 35.1784 141.362 35.3855 141.371 35.5969C141.375 35.6443 141.362 35.6788 141.327 35.709C141.292 35.7392 141.252 35.7565 141.208 35.7565H140.783C140.739 35.7565 140.695 35.7435 140.664 35.7177C140.629 35.6918 140.607 35.6486 140.589 35.5796C140.502 35.1871 140.339 34.9153 140.098 34.7686C139.857 34.622 139.558 34.5486 139.198 34.5486C138.786 34.5486 138.461 34.6651 138.219 34.8937C137.978 35.1224 137.846 35.4933 137.824 35.998C137.811 36.4122 137.811 36.8392 137.824 37.2706C137.846 37.7753 137.974 38.142 138.219 38.3749C138.461 38.6035 138.786 38.72 139.198 38.72C139.558 38.72 139.857 38.6467 140.098 38.5C140.335 38.3533 140.502 38.0816 140.589 37.689C140.603 37.6243 140.629 37.5769 140.664 37.551C140.699 37.5251 140.739 37.5122 140.783 37.5122H141.208C141.257 37.5122 141.296 37.5251 141.327 37.5596C141.362 37.5898 141.375 37.6286 141.371 37.6718C141.362 37.8831 141.309 38.0902 141.217 38.2886C141.125 38.4871 140.989 38.6682 140.813 38.8322C140.638 38.9961 140.414 39.1212 140.146 39.2204C139.878 39.3239 139.567 39.3714 139.211 39.3714Z" fill="#2EC2DE"></path></g><defs><clipPath id="clip0_19_2"><rect width="158" height="44" fill="white"></rect></clipPath></defs></svg>